HIERARCHY
ROOT ui
{
	 OFFSET 0 0 0
	 CHANNELS 3 XPosition YPosition Z Position
	 EndSite
	 {
	 OFFSET 0 -1 0
	 }
}
ROOT li
{
	 OFFSET 0 0 0
	 CHANNELS 3 XPosition YPosition Z Position
	 EndSite
	 {
	 OFFSET 0 -1 0
	 }
}
ROOT ul
{
	 OFFSET 0 0 0
	 CHANNELS 3 XPosition YPosition Z Position
	 EndSite
	 {
	 OFFSET 0 -1 0
	 }
}
ROOT ll
{
	 OFFSET 0 0 0
	 CHANNELS 3 XPosition YPosition Z Position
	 EndSite
	 {
	 OFFSET 0 -1 0
	 }
}
ROOT tt
{
	 OFFSET 0 0 0
	 CHANNELS 3 XPosition YPosition Z Position
	 EndSite
	 {
	 OFFSET 0 -1 0
	 }
}
ROOT tb
{
	 OFFSET 0 0 0
	 CHANNELS 3 XPosition YPosition Z Position
	 EndSite
	 {
	 OFFSET 0 -1 0
	 }
}
ROOT td
{
	 OFFSET 0 0 0
	 CHANNELS 3 XPosition YPosition Z Position
	 EndSite
	 {
	 OFFSET 0 -1 0
	 }
}
ROOT v
{
	 OFFSET 0 0 0
	 CHANNELS 3 XPosition YPosition Z Position
	 EndSite
	 {
	 OFFSET 0 -1 0
	 }
}
ROOT bn
{
	 OFFSET 0 0 0
	 CHANNELS 3 XPosition YPosition Z Position
	 EndSite
	 {
	 OFFSET 0 -1 0
	 }
}
MOTION
Frames: 21
Frame Time: 0.002
0.0018587189912796021	6.733710169792175E-4	0		0.458538330078125	-2.366337646484375	0		-1.1262662353515625	0.1073700942993164	0		-0.805107666015625	-2.552487548828125	0		1.2853896484375	-0.6413783569335938	0		3.0038251953125	-0.016119981765747072	0		4.451017578125	0.11645071411132812	0		5.568734375	0.2292765350341797	0		-0.44565380859375	5.8787353515625	0		
-0.002419015884399414	0.005434233188629151	0		0.48319607543945314	-2.3720341796875	0		-1.125545166015625	0.10754999542236328	0		-0.7385731201171875	-2.563042236328125	0		1.2827667236328124	-0.646162841796875	0		2.9814150390625	-0.026430830001831055	0		4.4497060546875	0.11035553741455079	0		5.56697802734375	0.21108969116210938	0		-0.4104980773925781	5.8853466796875	0		
-0.004769618034362793	0.0021903870105743407	0		0.4549276123046875	-2.372236328125	0		-1.1457978515625	0.11092253112792969	0		-0.7868320922851563	-2.553570068359375	0		1.2801563720703124	-0.6499186401367187	0		2.9771455078125	-0.020845008850097657	0		4.44535009765625	0.10035707092285157	0		5.563197265625	0.22423294067382812	0		-0.302473388671875	5.8852490234375	0		
8.469880223274231E-4	-0.0031174709796905516	0		0.47863604736328125	-2.377905517578125	0		-1.14912939453125	0.10713863372802734	0		-0.7422720947265625	-2.5669697265625	0		1.2805728759765624	-0.650668701171875	0		2.982733642578125	-0.029292110443115235	0		4.446052734375	0.09839756774902343	0		5.56493359375	0.19071609497070313	0		-0.4186617126464844	5.87526806640625	0		
-0.0034569499492645263	0.001685562014579773	0		0.4275028076171875	-2.369809326171875	0		-1.123435302734375	0.10805492401123047	0		-0.7765051879882813	-2.5616025390625	0		1.2840130615234375	-0.6484112548828125	0		2.978440185546875	-0.02357163429260254	0		4.4397958984375	0.102607177734375	0		5.56402880859375	0.21282876586914062	0		-0.4017819519042969	5.8850302734375	0		
-0.002836709976196289	0.0014551539421081543	0		0.4842991943359375	-2.371784423828125	0		-1.1227786865234375	0.10820714569091797	0		-0.7727189331054688	-2.55761083984375	0		1.2874530029296876	-0.6451131591796875	0		2.9880302734375	-0.02691507339477539	0		4.45044970703125	0.10075387573242188	0		5.56735595703125	0.2264144744873047	0		-0.39915167236328125	5.884935546875	0		
7.818109989166259E-4	0.00420894718170166	0		0.45716415405273436	-2.368861572265625	0		-1.134049560546875	0.11847904205322266	0		-0.7838599243164063	-2.5494609375	0		1.284790283203125	-0.6497047119140625	0		2.983683349609375	-0.021026905059814454	0		4.43615478515625	0.10728462219238281	0		5.57122509765625	0.20563006591796876	0		-0.2765702819824219	5.89555029296875	0		
-0.0017049620151519775	0.001045820951461792	0		0.47102468872070313	-2.36834716796875	0		-1.138502685546875	0.11567095947265625	0		-0.7990172119140625	-2.54526123046875	0		1.2821116943359374	-0.6532444458007812	0		3.020131103515625	-0.030497495651245116	0		4.45366357421875	0.09959878540039062	0		5.56517333984375	0.20613618469238282	0		-0.27429598999023436	5.8954345703125	0		
-0.0012068580389022828	8.685020208358765E-4	0		0.4538214111328125	-2.37445751953125	0		-1.14201904296875	0.11184367370605469	0		-0.7523287963867188	-2.556758544921875	0		1.304421875	-0.655015380859375	0		2.9806572265625	-0.028029237747192383	0		4.442166015625	0.09636533355712891	0		5.5654951171875	0.20328910827636718	0		-0.27320855712890624	5.89634130859375	0		
-7.624419927597046E-4	7.09646999835968E-4	0		0.4536898193359375	-2.3747265625	0		-1.120583984375	0.10871784210205078	0		-0.813523681640625	-2.55802685546875	0		1.2857548828125	-0.6512705078125	0		2.990931396484375	-0.04302629089355469	0		4.45263232421875	0.095012939453125	0		5.57637109375	0.1779235076904297	0		-0.4235449523925781	5.87901416015625	0		
0.0075978879928588865	-0.0015254019498825073	0		0.43267547607421875	-2.364718505859375	0		-1.1161287841796874	0.112774169921875	0		-0.7706416015625	-2.553498779296875	0		1.289044189453125	-0.6477277221679687	0		3.007648193359375	-0.015011308670043945	0		4.44610888671875	0.09998244476318359	0		5.57242822265625	0.19475433349609375	0		-0.38782022094726565	5.8835634765625	0		
0.007915536880493164	-0.001649428963661194	0		0.4834317321777344	-2.3735380859375	0		-1.1317154541015626	0.11906153869628906	0		-0.784773193359375	-2.549302734375	0		1.286187744140625	-0.6520656127929687	0		2.98178466796875	-0.030407533645629883	0		4.45945751953125	0.09983522796630859	0		5.5691494140625	0.2100889434814453	0		-0.3883170166015625	5.8865400390625	0		
-0.0767968978881836	0.0022812540531158445	0		0.45324346923828124	-2.3753603515625	0		-1.131449951171875	0.11915309143066406	0		-0.7510332641601563	-2.554685546875	0		1.2832833251953124	-0.65535595703125	0		2.9820244140625	-0.031028329849243166	0		4.44565966796875	0.0941296615600586	0		5.570572265625	0.17708387756347657	0		-0.26593972778320313	5.8950263671875	0		
3.541820049285889E-4	2.558600008487701E-4	0		0.47902459716796875	-2.37783642578125	0		-1.1312628173828125	0.11923880004882813	0		-0.7892374267578125	-2.5531884765625	0		1.2833526611328125	-0.6556373901367187	0		2.987101806640625	-0.03862920761108399	0		4.45074365234375	0.08530633544921876	0		5.56648095703125	0.1929171600341797	0		-0.26586212158203126	5.89599267578125	0		
4.507920145988464E-4	1.875389963388443E-4	0		0.45283349609375	-2.3756435546875	0		-1.1192762451171876	0.10917123413085937	0		-0.7426196899414063	-2.564738037109375	0		1.2833624267578125	-0.65587548828125	0		2.99235498046875	-0.02615618896484375	0		4.45392626953125	0.09061117553710937	0		5.57072216796875	0.17411502075195312	0		-0.38413827514648435	5.88444580078125	0		
0.0035207340717315675	0.003098912954330444	0		0.4556566162109375	-2.3707841796875	0		-1.1151812744140626	0.11319813537597656	0		-0.8087245483398438	-2.551873291015625	0		1.2863572998046875	-0.6531109619140625	0		2.99128369140625	-0.03453611373901367	0		4.45804443359375	0.09599981689453126	0		5.57294091796875	0.18671337890625	0		-0.38343218994140627	5.884439453125	0		
0.003498241901397705	0.003065114974975586	0		0.4823598327636719	-2.374205078125	0		-1.131115478515625	0.11947724151611328	0		-0.750003662109375	-2.552575927734375	0		1.2832322998046874	-0.65623291015625	0		3.001332763671875	-0.028991876602172853	0		4.453955078125	0.08957814025878906	0		5.5665107421875	0.18937580871582033	0		-0.2486063995361328	5.90474072265625	0		
0.0053265118598937984	-0.0049774861335754395	0		0.45206613159179687	-2.3758798828125	0		-1.1311749267578124	0.11955560302734375	0		-0.7882734985351563	-2.551044189453125	0		1.2800562744140624	-0.6603203125	0		2.991184814453125	-0.03513510513305664	0		4.44591943359375	0.09128571319580078	0		5.56644970703125	0.188542236328125	0		-0.26328985595703125	5.89593701171875	0		
2.818929851055145E-4	8.33899974822998E-5	0		0.46885919189453124	-2.37013427734375	0		-1.131275146484375	0.11963573455810547	0		-0.7655322875976562	-2.548284912109375	0		1.276847900390625	-0.6643775634765625	0		2.982099853515625	-0.03324089431762695	0		4.45379052734375	0.08885541534423828	0		5.5705498046875	0.17041192626953125	0		-0.3972393798828125	5.87567724609375	0		
1.4031900465488433E-4	9.460200369358062E-5	0		0.42453024291992186	-2.372584716796875	0		-1.1195391845703124	0.10956549835205077	0		-0.7779786987304688	-2.559068603515625	0		1.282766357421875	-0.6565265502929688	0		2.9917744140625	-0.04754927062988281	0		4.44756494140625	0.0816585464477539	0		5.57265283203125	0.1835927734375	0		-0.38188839721679685	5.88451953125	0		
0.007945598125457764	-0.001984720945358276	0		0.4832457580566406	-2.3713505859375	0		-1.1156494140625	0.11360237121582031	0		-0.773217529296875	-2.553064697265625	0		1.2855989990234375	-0.6536156616210937	0		3.019899658203125	-0.025063344955444336	0		4.4575693359375	0.09429457092285157	0		5.57544287109375	0.19510383605957032	0		-0.4147909545898438	5.87899462890625	0		
